<?xml version="1.0" encoding="utf-8" standalone="no"?>
<!DOCTYPE svg PUBLIC "-//W3C//DTD SVG 1.1//EN"
  "http://www.w3.org/Graphics/SVG/1.1/DTD/svg11.dtd">
<svg xmlns:xlink="http://www.w3.org/1999/xlink" width="357.12pt" height="243.145532pt" viewBox="0 0 357.12 243.145532" xmlns="http://www.w3.org/2000/svg" version="1.1">
 <metadata>
  <rdf:RDF xmlns:dc="http://purl.org/dc/elements/1.1/" xmlns:cc="http://creativecommons.org/ns#" xmlns:rdf="http://www.w3.org/1999/02/22-rdf-syntax-ns#">
   <cc:Work>
    <dc:type rdf:resource="http://purl.org/dc/dcmitype/StillImage"/>
    <dc:date>2023-01-24T14:52:13.079901</dc:date>
    <dc:format>image/svg+xml</dc:format>
    <dc:creator>
     <cc:Agent>
      <dc:title>Matplotlib v3.6.2, https://matplotlib.org/</dc:title>
     </cc:Agent>
    </dc:creator>
   </cc:Work>
  </rdf:RDF>
 </metadata>
 <defs>
  <style type="text/css">*{stroke-linejoin: round; stroke-linecap: butt}</style>
 </defs>
 <g id="figure_1">
  <g id="patch_1">
   <path d="M 0 243.145532 
L 357.12 243.145532 
L 357.12 0 
L 0 0 
z
" style="fill: #ffffff"/>
  </g>
  <g id="axes_1">
   <g id="patch_2">
    <path d="M 102.577021 45.589787 
L 102.577021 64.585532 
L 311.530213 64.585532 
L 311.530213 45.589787 
z
" clip-path="url(#pd56aabdbd7)" style="fill: #ff0000; opacity: 0.3"/>
   </g>
   <g id="patch_3">
    <path d="M 37.991489 163.363404 
L 37.991489 205.154043 
L 227.948936 205.154043 
L 227.948936 163.363404 
z
" clip-path="url(#pd56aabdbd7)" style="fill: #ff0000; opacity: 0.3"/>
   </g>
   <g id="patch_4">
    <path d="M 159.564255 83.581277 
L 159.564255 121.572766 
L 163.363404 121.572766 
L 163.363404 83.581277 
z
" clip-path="url(#pd56aabdbd7)" style="fill: #ff0000; opacity: 0.3"/>
   </g>
   <g id="patch_5">
    <path d="M 11.397447 121.572766 
L 11.397447 125.371915 
L 163.363404 125.371915 
L 163.363404 121.572766 
z
" clip-path="url(#pd56aabdbd7)" style="fill: #ff0000; opacity: 0.3"/>
   </g>
   <g id="patch_6">
    <path d="M 15.196596 231.748085 
L 11.397447 231.748085 
L 11.397447 125.371915 
L 15.196596 125.371915 
z
" clip-path="url(#pd56aabdbd7)" style="fill: #ff0000; opacity: 0.3"/>
   </g>
   <g id="patch_7">
    <path d="M 15.196596 227.948936 
L 15.196596 231.748085 
L 231.748085 231.748085 
L 231.748085 227.948936 
z
" clip-path="url(#pd56aabdbd7)" style="fill: #ff0000; opacity: 0.3"/>
   </g>
   <g id="patch_8">
    <path d="M 227.948936 83.581277 
L 227.948936 227.948936 
L 231.748085 227.948936 
L 231.748085 83.581277 
z
" clip-path="url(#pd56aabdbd7)" style="fill: #ff0000; opacity: 0.3"/>
   </g>
   <g id="patch_9">
    <path d="M 227.948936 79.782128 
L 227.948936 83.581277 
L 345.722553 83.581277 
L 345.722553 79.782128 
z
" clip-path="url(#pd56aabdbd7)" style="fill: #ff0000; opacity: 0.3"/>
   </g>
   <g id="patch_10">
    <path d="M 341.923404 15.196596 
L 341.923404 79.782128 
L 345.722553 79.782128 
L 345.722553 15.196596 
z
" clip-path="url(#pd56aabdbd7)" style="fill: #ff0000; opacity: 0.3"/>
   </g>
   <g id="patch_11">
    <path d="M 64.585532 11.397447 
L 64.585532 15.196596 
L 345.722553 15.196596 
L 345.722553 11.397447 
z
" clip-path="url(#pd56aabdbd7)" style="fill: #ff0000; opacity: 0.3"/>
   </g>
   <g id="patch_12">
    <path d="M 68.384681 83.581277 
L 64.585532 83.581277 
L 64.585532 15.196596 
L 68.384681 15.196596 
z
" clip-path="url(#pd56aabdbd7)" style="fill: #ff0000; opacity: 0.3"/>
   </g>
   <g id="patch_13">
    <path d="M 159.564255 87.380426 
L 64.585532 87.380426 
L 64.585532 83.581277 
L 159.564255 83.581277 
z
" clip-path="url(#pd56aabdbd7)" style="fill: #ff0000; opacity: 0.3"/>
   </g>
   <g id="line2d_1">
    <path d="M 140.568511 26.594043 
L 93.079149 36.091915 
L 93.079149 74.083404 
L 172.861277 74.083404 
L 172.861277 134.869787 
L 28.493617 153.865532 
L 28.493617 214.651915 
L 178.56 216.551489 
" clip-path="url(#pd56aabdbd7)" style="fill: none; stroke-dasharray: 7.4,3.2; stroke-dashoffset: 0; stroke: #000000; stroke-width: 2"/>
    <defs>
     <path id="mad3702338a" d="M 0 3 
C 0.795609 3 1.55874 2.683901 2.12132 2.12132 
C 2.683901 1.55874 3 0.795609 3 0 
C 3 -0.795609 2.683901 -1.55874 2.12132 -2.12132 
C 1.55874 -2.683901 0.795609 -3 0 -3 
C -0.795609 -3 -1.55874 -2.683901 -2.12132 -2.12132 
C -2.683901 -1.55874 -3 -0.795609 -3 0 
C -3 0.795609 -2.683901 1.55874 -2.12132 2.12132 
C -1.55874 2.683901 -0.795609 3 0 3 
z
" style="stroke: #000000"/>
    </defs>
    <g clip-path="url(#pd56aabdbd7)">
     <use xlink:href="#mad3702338a" x="140.568511" y="26.594043" style="stroke: #000000"/>
     <use xlink:href="#mad3702338a" x="93.079149" y="36.091915" style="stroke: #000000"/>
     <use xlink:href="#mad3702338a" x="93.079149" y="74.083404" style="stroke: #000000"/>
     <use xlink:href="#mad3702338a" x="172.861277" y="74.083404" style="stroke: #000000"/>
     <use xlink:href="#mad3702338a" x="172.861277" y="134.869787" style="stroke: #000000"/>
     <use xlink:href="#mad3702338a" x="28.493617" y="153.865532" style="stroke: #000000"/>
     <use xlink:href="#mad3702338a" x="28.493617" y="214.651915" style="stroke: #000000"/>
     <use xlink:href="#mad3702338a" x="178.56" y="216.551489" style="stroke: #000000"/>
    </g>
   </g>
   <g id="line2d_2">
    <path d="M 197.555745 26.594043 
L 93.079149 36.091915 
L 93.079149 74.083404 
L 172.861277 74.083404 
L 172.861277 134.869787 
L 28.493617 153.865532 
L 28.493617 214.651915 
L 121.572766 216.551489 
" clip-path="url(#pd56aabdbd7)" style="fill: none; stroke-dasharray: 7.4,3.2; stroke-dashoffset: 0; stroke: #000000; stroke-width: 2"/>
    <g clip-path="url(#pd56aabdbd7)">
     <use xlink:href="#mad3702338a" x="197.555745" y="26.594043" style="stroke: #000000"/>
     <use xlink:href="#mad3702338a" x="93.079149" y="36.091915" style="stroke: #000000"/>
     <use xlink:href="#mad3702338a" x="93.079149" y="74.083404" style="stroke: #000000"/>
     <use xlink:href="#mad3702338a" x="172.861277" y="74.083404" style="stroke: #000000"/>
     <use xlink:href="#mad3702338a" x="172.861277" y="134.869787" style="stroke: #000000"/>
     <use xlink:href="#mad3702338a" x="28.493617" y="153.865532" style="stroke: #000000"/>
     <use xlink:href="#mad3702338a" x="28.493617" y="214.651915" style="stroke: #000000"/>
     <use xlink:href="#mad3702338a" x="121.572766" y="216.551489" style="stroke: #000000"/>
    </g>
   </g>
   <g id="line2d_3">
    <path d="M 254.542979 26.594043 
L 93.079149 36.091915 
L 93.079149 74.083404 
L 172.861277 74.083404 
L 172.861277 134.869787 
L 28.493617 153.865532 
L 28.493617 214.651915 
L 64.585532 216.551489 
" clip-path="url(#pd56aabdbd7)" style="fill: none; stroke-dasharray: 7.4,3.2; stroke-dashoffset: 0; stroke: #000000; stroke-width: 2"/>
    <g clip-path="url(#pd56aabdbd7)">
     <use xlink:href="#mad3702338a" x="254.542979" y="26.594043" style="stroke: #000000"/>
     <use xlink:href="#mad3702338a" x="93.079149" y="36.091915" style="stroke: #000000"/>
     <use xlink:href="#mad3702338a" x="93.079149" y="74.083404" style="stroke: #000000"/>
     <use xlink:href="#mad3702338a" x="172.861277" y="74.083404" style="stroke: #000000"/>
     <use xlink:href="#mad3702338a" x="172.861277" y="134.869787" style="stroke: #000000"/>
     <use xlink:href="#mad3702338a" x="28.493617" y="153.865532" style="stroke: #000000"/>
     <use xlink:href="#mad3702338a" x="28.493617" y="214.651915" style="stroke: #000000"/>
     <use xlink:href="#mad3702338a" x="64.585532" y="216.551489" style="stroke: #000000"/>
    </g>
   </g>
  </g>
 </g>
 <defs>
  <clipPath id="pd56aabdbd7">
   <rect x="0" y="-0" width="357.12" height="243.145532"/>
  </clipPath>
 </defs>
</svg>
